# xmcd CD database file
#
# Track frame offsets:
#	150
#	13386
#	26756
#	40675
#	53873
#	68500
#	79895
#	93261
#	107658
#	121769
#	134555
#	149194
#	161613
#	175611
#	186652
#	198704
#	213432
#	227047
#	239065
#	251943
#	264298
#	275050
#
# Disc length: 3819 seconds
#
# Revision: 7
# Processed by: cddbd v1.5.2PL0 Copyright (c) Steve Scherf et al.
# Submitted via: CDex 1.51
#
DISCID=520ee916
DTITLE=Nat King Cole - Vol.06 - For Sentimental Reaons
DYEAR=1900
DGENRE=Jazz
TTITLE0=(I Love You)  For Sentimental Reasons
TTITLE1=In The Cool Of The Evening
TTITLE2=That's The Beginning Of The End
TTITLE3=Smoke Gets In Your Eyes
TTITLE4=I Want To Thank You Folks
TTITLE5=You're The Cream In My Coffee
TTITLE6=Come In Out Of The Rain
TTITLE7=You Don't Learn In That School
TTITLE8=You Be You
TTITLE9=Can You Look Me In The Eyes
TTITLE10=Meet Me At No Special Place
TTITLE11=Naughty Angeline
TTITLE12=I Miss You So
TTITLE13=That's What
TTITLE14=Honeysuckle Rose
TTITLE15=It's Kind Of Lonesome Out Tonight
TTITLE16=For Once In Your Life
TTITLE17=I Think You Can Get What I Mean
TTITLE18=But All I've Got Is Me
TTITLE19=I Can't Be Bothered
TTITLE20=When I Take My Sugar To Tea
TTITLE21=Rhumba Azul
EXTD=
EXTT0=
EXTT1=
EXTT2=
EXTT3=
EXTT4=
EXTT5=
EXTT6=
EXTT7=
EXTT8=
EXTT9=
EXTT10=
EXTT11=
EXTT12=
EXTT13=
EXTT14=
EXTT15=
EXTT16=
EXTT17=
EXTT18=
EXTT19=
EXTT20=
EXTT21=
PLAYORDER=
